<svg width="288" height="40" viewBox="0 0 288 40" fill="none" xmlns="http://www.w3.org/2000/svg">
<path d="M39.1193 10.3584C37.1797 9.25313 36.1818 8.91693 34.8791 8.91693C34.3785 8.88173 33.8759 8.94798 33.4014 9.1117C32.927 9.27543 32.4904 9.53327 32.1179 9.86978C31.7454 10.2063 31.4446 10.6146 31.2335 11.0701C31.0224 11.5257 30.9053 12.0192 30.8893 12.5211C30.8893 17.5668 39.8945 15.1545 39.8945 21.7808C39.8816 22.4837 39.7288 23.177 39.4448 23.82C39.1608 24.4631 38.7514 25.043 38.2406 25.5258C37.7298 26.0085 37.1279 26.3844 36.4701 26.6315C35.8123 26.8786 35.1118 26.9919 34.4096 26.9647C32.6642 26.9039 30.9764 26.3248 29.5609 25.3012V23.5824C31.6654 25.1059 32.8575 25.6088 34.3268 25.6088C34.838 25.6308 35.3485 25.5499 35.8279 25.371C36.3073 25.192 36.746 24.9187 37.1179 24.567C37.4899 24.2154 37.7875 23.7927 37.9933 23.3239C38.199 22.8552 38.3086 22.3498 38.3157 21.8379C38.3157 16.4606 29.3124 18.8158 29.3124 12.5782C29.3388 11.8917 29.5004 11.2171 29.7878 10.5931C30.0753 9.96909 30.4829 9.40799 30.9875 8.94192C31.4921 8.47585 32.0836 8.11397 32.7281 7.87702C33.3727 7.64008 34.0577 7.53272 34.7438 7.5611C36.2813 7.57679 37.7891 7.98685 39.123 8.75206L39.1193 10.3584Z" fill="#0070BC"/>
<path d="M43.1425 14.9647C44.2906 14.3418 45.5768 14.0178 46.8828 14.0225C47.7163 14.0148 48.5426 14.1779 49.3106 14.5019C50.0787 14.8259 50.7723 15.3039 51.3487 15.9063C51.9252 16.5088 52.3721 17.2229 52.6622 18.0048C52.9522 18.7867 53.0791 19.6197 53.0351 20.4526C53.0651 21.2908 52.9272 22.1266 52.6297 22.9107C52.3321 23.6949 51.8808 24.4116 51.3024 25.0187C50.7239 25.6258 50.03 26.111 49.2613 26.4458C48.4927 26.7806 47.6649 26.9583 46.8267 26.9683C45.54 26.9656 44.2743 26.6418 43.1443 26.026V33.0954H41.8132V14.2666H43.1425V14.9647ZM43.1425 24.7236C44.1778 25.3506 45.3671 25.6768 46.5772 25.6659C47.2502 25.6983 47.9225 25.5876 48.5497 25.3412C49.1769 25.0947 49.7448 24.7182 50.2161 24.2362C50.6873 23.7543 51.0511 23.178 51.2836 22.5452C51.5161 21.9124 51.612 21.2375 51.5649 20.5649C51.5958 19.8756 51.4843 19.1872 51.2372 18.543C50.9902 17.8987 50.6129 17.3124 50.1291 16.8206C49.6452 16.3289 49.0651 15.9423 48.4251 15.6851C47.7852 15.4279 47.099 15.3056 46.4096 15.3258C45.2565 15.3271 44.1257 15.6441 43.1397 16.2423L43.1425 24.7236Z" fill="#0070BC"/>
<path d="M56.2809 20.0307C56.1915 20.735 56.253 21.4502 56.4615 22.1289C56.6699 22.8075 57.0204 23.4339 57.4897 23.9663C57.959 24.4988 58.5363 24.9251 59.1831 25.2169C59.8299 25.5087 60.5315 25.6593 61.241 25.6586C62.9597 25.6336 64.608 24.9716 65.867 23.8007V25.2975C64.5137 26.393 62.8206 26.9814 61.0799 26.961C57.4768 26.961 54.8715 24.1894 54.8715 20.3356C54.8715 16.6752 57.2834 14.0151 60.5791 14.0151C63.2405 14.0151 66.0934 15.873 66.0934 20.0307H56.2809ZM64.5109 18.9494C64.0378 16.5104 62.7094 15.3175 60.5745 15.3175C59.5636 15.3203 58.588 15.6899 57.8289 16.3578C57.0697 17.0257 56.5786 17.9466 56.4466 18.9494H64.5109Z" fill="#0070BC"/>
<path d="M77.3527 16.0968C76.346 15.5928 75.237 15.3268 74.1113 15.3194C71.3404 15.3194 69.4283 17.4268 69.4283 20.5318C69.4283 23.6635 71.2861 25.6604 74.2227 25.6604C75.3791 25.6634 76.5225 25.4175 77.5755 24.9392V26.3208C76.4682 26.7391 75.2949 26.9553 74.1113 26.9591C70.4539 26.9591 68.0162 24.4372 68.0162 20.6672C68.0162 16.7581 70.5091 14.0142 74.0561 14.0142C75.1817 14.0273 76.2967 14.2333 77.3527 14.6231V16.0968Z" fill="#0070BC"/>
<path d="M83.916 14.2674H87.4068V15.3488H83.916V22.7515C83.916 24.8857 83.9445 25.6621 85.7737 25.6621C86.5697 25.6543 87.3507 25.4448 88.0439 25.0533V26.3272C87.6798 26.5021 87.2997 26.6413 86.9088 26.7426C86.438 26.8686 85.9549 26.9431 85.4681 26.9646C85.0999 26.9987 84.7286 26.955 84.3783 26.8363C84.0281 26.7175 83.7067 26.5265 83.435 26.2755C83.1633 26.0245 82.9474 25.7192 82.8012 25.3793C82.6551 25.0394 82.582 24.6726 82.5866 24.3026V15.3488H79.2348V14.2674H82.5866V11.3006L83.5008 10.1364H83.916V14.2674Z" fill="#0070BC"/>
<path d="M97.6867 16.7341C96.4945 15.6528 95.886 15.3193 95.1919 15.3193C93.9731 15.3193 92.56 16.595 91.203 18.8959V26.7141H89.8746V14.2665H91.203V17.5364H91.2583C92.7266 15.2088 94.2216 14.0169 95.608 14.0169C96.4669 14.0169 97.243 14.4047 98.4618 15.4851L97.6867 16.7341Z" fill="#0070BC"/>
<path d="M109.616 25.6604L109.395 25.8272C108.148 26.7694 107.623 26.9638 107.093 26.9638C106.484 26.9638 106.316 26.6598 106.206 25.4108C105.127 26.3727 103.743 26.9226 102.299 26.9638C101.871 26.9791 101.444 26.9094 101.043 26.7587C100.642 26.608 100.275 26.3793 99.9634 26.0857C99.6514 25.7922 99.4007 25.4397 99.2258 25.0486C99.0509 24.6575 98.9552 24.2356 98.9443 23.8072C98.9443 20.5632 102.575 19.4275 106.204 19.2608V17.6774C106.204 16.0139 105.291 15.1269 103.434 15.1269C102.021 15.1844 100.675 15.7445 99.6375 16.7066V15.348C100.813 14.5124 102.213 14.0491 103.655 14.0179C105.207 14.0179 107.535 14.6563 107.535 17.2611V25.0231C107.535 25.5223 107.619 25.6604 107.839 25.6604C108.495 25.4085 109.097 25.0334 109.612 24.5551L109.616 25.6604ZM106.21 20.3651C102.968 20.227 100.28 21.6408 100.28 23.8026C100.303 24.101 100.386 24.3917 100.523 24.6576C100.66 24.9234 100.849 25.159 101.079 25.3503C101.309 25.5416 101.576 25.6847 101.862 25.7712C102.148 25.8577 102.449 25.8858 102.746 25.8539C103.401 25.8287 104.045 25.6736 104.639 25.3975C105.234 25.1214 105.767 24.7299 106.21 24.2457V20.3651Z" fill="#0070BC"/>
<path d="M127.154 10.7462C125.1 9.57819 122.783 8.94893 120.42 8.91697C119.321 8.89721 118.23 9.1011 117.212 9.51626C116.194 9.93142 115.271 10.5492 114.499 11.3321C113.727 12.115 113.122 13.0467 112.721 14.0706C112.319 15.0946 112.13 16.1894 112.165 17.2887C112.165 22.1704 115.683 25.6052 120.616 25.6052C122.988 25.5411 125.306 24.8728 127.349 23.6635V25.1888C125.291 26.3158 122.99 26.9247 120.644 26.9629C114.88 26.9629 110.585 22.8318 110.585 17.2915C110.587 15.9976 110.846 14.7171 111.348 13.5246C111.849 12.3321 112.584 11.2515 113.507 10.3459C114.431 9.44022 115.525 8.72762 116.727 8.24967C117.928 7.77171 119.213 7.53796 120.506 7.56205C122.81 7.60457 125.078 8.14335 127.155 9.14171L127.154 10.7462Z" fill="#0070BC"/>
<path d="M130.51 20.0307C130.42 20.735 130.482 21.4502 130.69 22.1289C130.898 22.8075 131.249 23.4339 131.718 23.9663C132.188 24.4988 132.765 24.9251 133.412 25.2169C134.059 25.5087 134.76 25.6593 135.47 25.6586C137.189 25.6336 138.838 24.9716 140.097 23.8007V25.2975C138.742 26.3937 137.047 26.982 135.305 26.961C131.703 26.961 129.096 24.1894 129.096 20.3356C129.096 16.6752 131.507 14.0151 134.804 14.0151C137.464 14.0151 140.317 15.873 140.317 20.0307H130.51ZM138.739 18.9494C138.268 16.5104 136.938 15.3175 134.805 15.3175C133.794 15.3205 132.819 15.6902 132.06 16.358C131.3 17.0259 130.809 17.9467 130.677 18.9494H138.739Z" fill="#0070BC"/>
<path d="M143.52 26.715H142.19V7.80792H143.52V26.715Z" fill="#0070BC"/>
<path d="M147.559 26.715H146.23V7.80792H147.559V26.715Z" fill="#0070BC"/>
<path d="M158.57 25.4947H167.907V26.7151H157.102V7.80804H158.57V25.4947Z" fill="#0070BC"/>
<path d="M180.517 25.6604L180.294 25.8272C179.048 26.7694 178.522 26.9638 177.993 26.9638C177.381 26.9638 177.216 26.6598 177.104 25.4108C176.026 26.3728 174.642 26.9228 173.198 26.9638C172.77 26.979 172.343 26.9091 171.942 26.7581C171.541 26.6071 171.174 26.378 170.862 26.084C170.551 25.7901 170.3 25.4372 170.126 25.0457C169.951 24.6543 169.856 24.2321 169.846 23.8035C169.846 20.5595 173.474 19.4238 177.104 19.2571V17.6774C177.104 16.0139 176.191 15.1269 174.334 15.1269C172.921 15.1842 171.575 15.7444 170.538 16.7066V15.348C171.714 14.5121 173.114 14.0488 174.556 14.0179C176.107 14.0179 178.435 14.6563 178.435 17.2611V25.0231C178.435 25.5223 178.517 25.6604 178.738 25.6604C179.395 25.4083 179.997 25.0332 180.512 24.5551L180.517 25.6604ZM177.111 20.3651C173.869 20.227 171.183 21.6408 171.183 23.8026C171.206 24.1008 171.289 24.3914 171.426 24.6571C171.563 24.9228 171.752 25.1583 171.982 25.3495C172.212 25.5408 172.478 25.684 172.764 25.7706C173.05 25.8573 173.35 25.8856 173.648 25.8539C174.303 25.8291 174.946 25.6741 175.541 25.398C176.135 25.1219 176.669 24.7302 177.111 24.2457V20.3651Z" fill="#0070BC"/>
<path d="M182.402 7.80804H183.732V16.0416C184.288 15.3979 184.978 14.8831 185.753 14.5331C186.528 14.1832 187.37 14.0064 188.22 14.0152C191.489 14.0152 193.761 16.5104 193.761 20.0861C193.761 24.2724 191.018 26.9611 186.806 26.9611C185.289 26.9491 183.791 26.6285 182.401 26.0188L182.402 7.80804ZM183.732 25.0784C184.703 25.4595 185.737 25.6572 186.78 25.6614C187.512 25.6934 188.244 25.5739 188.929 25.3104C189.613 25.0469 190.236 24.645 190.759 24.13C191.282 23.6149 191.693 22.9976 191.966 22.3166C192.24 21.6355 192.37 20.9054 192.349 20.1718C192.349 17.2335 190.548 15.127 188.054 15.127C186.502 15.127 185.229 15.8473 183.732 17.5375V25.0784Z" fill="#0070BC"/>
<path d="M201.993 26.9639C201.147 26.9772 200.307 26.8184 199.523 26.497C198.74 26.1757 198.03 25.6986 197.437 25.0946C196.843 24.4906 196.379 23.7723 196.071 22.9832C195.763 22.1942 195.619 21.3508 195.647 20.5043C195.626 19.6595 195.775 18.8192 196.084 18.0327C196.393 17.2463 196.856 16.5296 197.446 15.9249C198.036 15.3202 198.741 14.8397 199.52 14.5116C200.298 14.1835 201.134 14.0145 201.979 14.0145C202.823 14.0145 203.659 14.1835 204.438 14.5116C205.216 14.8397 205.921 15.3202 206.511 15.9249C207.101 16.5296 207.564 17.2463 207.873 18.0327C208.182 18.8192 208.331 19.6595 208.31 20.5043C208.341 21.3492 208.2 22.1916 207.896 22.9801C207.591 23.7687 207.129 24.487 206.538 25.0913C205.947 25.6956 205.239 26.1733 204.458 26.4952C203.677 26.8171 202.838 26.9766 201.993 26.9639ZM201.993 15.3205C201.323 15.3176 200.66 15.4517 200.044 15.7145C199.428 15.9773 198.872 16.3632 198.41 16.8487C197.948 17.3342 197.59 17.9089 197.358 18.5377C197.126 19.1664 197.025 19.836 197.061 20.5052C197.031 21.1702 197.136 21.8345 197.369 22.4578C197.603 23.0811 197.96 23.6506 198.42 24.1319C198.879 24.6131 199.432 24.9962 200.044 25.2579C200.655 25.5196 201.314 25.6545 201.979 25.6545C202.644 25.6545 203.303 25.5196 203.915 25.2579C204.526 24.9962 205.079 24.6131 205.538 24.1319C205.998 23.6506 206.355 23.0811 206.589 22.4578C206.823 21.8345 206.927 21.1702 206.897 20.5052C206.932 19.8387 206.83 19.1721 206.599 18.5458C206.369 17.9196 206.013 17.3467 205.555 16.8619C205.096 16.3771 204.544 15.9904 203.932 15.7253C203.32 15.4602 202.66 15.3221 201.993 15.3195V15.3205Z" fill="#0070BC"/>
<path d="M218.008 16.7342C216.818 15.6529 216.208 15.3194 215.514 15.3194C214.296 15.3194 212.883 16.5951 211.526 18.896V26.7142H210.194V14.2666H211.526V17.5365H211.579C213.052 15.2089 214.544 14.017 215.93 14.017C216.79 14.017 217.565 14.4048 218.783 15.4852L218.008 16.7342Z" fill="#0070BC"/>
<path d="M229.707 25.6604L229.484 25.8272C228.237 26.7694 227.711 26.9638 227.183 26.9638C226.573 26.9638 226.406 26.6598 226.296 25.4108C225.217 26.3727 223.833 26.9227 222.389 26.9638C221.96 26.9789 221.534 26.9089 221.133 26.7578C220.732 26.6068 220.365 26.3777 220.053 26.0838C219.741 25.7899 219.491 25.437 219.316 25.0456C219.142 24.6542 219.046 24.232 219.036 23.8035C219.036 20.5595 222.665 19.4238 226.296 19.2571V17.6774C226.296 16.0139 225.381 15.1269 223.525 15.1269C222.112 15.1842 220.766 15.7444 219.729 16.7066V15.348C220.905 14.5121 222.305 14.0487 223.747 14.0179C225.299 14.0179 227.625 14.6563 227.625 17.2611V25.0231C227.625 25.5223 227.71 25.6604 227.93 25.6604C228.587 25.4081 229.189 25.033 229.705 24.5551L229.707 25.6604ZM226.301 20.3651C223.059 20.227 220.372 21.6408 220.372 23.8026C220.395 24.1009 220.477 24.3915 220.614 24.6573C220.752 24.9231 220.941 25.1586 221.171 25.3499C221.401 25.5412 221.666 25.6843 221.953 25.7709C222.239 25.8575 222.54 25.8857 222.837 25.8539C223.492 25.8289 224.135 25.6738 224.73 25.3977C225.324 25.1216 225.858 24.73 226.3 24.2457L226.301 20.3651Z" fill="#0070BC"/>
<path d="M233.811 14.2676H237.303V15.349H233.811V22.7517C233.811 24.8859 233.84 25.6623 235.669 25.6623C236.466 25.6547 237.248 25.4452 237.942 25.0535V26.3274C237.577 26.5017 237.197 26.6408 236.806 26.7428C236.335 26.8688 235.851 26.9433 235.364 26.9647C234.996 26.9989 234.625 26.9551 234.274 26.8364C233.924 26.7177 233.603 26.5267 233.331 26.2757C233.059 26.0247 232.843 25.7193 232.697 25.3795C232.551 25.0396 232.478 24.6728 232.483 24.3028V15.349H229.13V14.2676H232.483V11.3008L233.396 10.1365H233.811V14.2676Z" fill="#0070BC"/>
<path d="M245.1 26.9638C244.254 26.9772 243.413 26.8185 242.63 26.4972C241.847 26.1759 241.137 25.6987 240.544 25.0947C239.951 24.4906 239.486 23.7722 239.179 22.9831C238.871 22.194 238.727 21.3507 238.755 20.5042C238.733 19.658 238.879 18.8157 239.187 18.0272C239.495 17.2387 239.958 16.5199 240.548 15.9132C241.138 15.3066 241.844 14.8244 242.624 14.4952C243.403 14.166 244.241 13.9963 245.087 13.9963C245.933 13.9963 246.77 14.166 247.55 14.4952C248.329 14.8244 249.035 15.3066 249.625 15.9132C250.215 16.5199 250.678 17.2387 250.986 18.0272C251.294 18.8157 251.441 19.658 251.418 20.5042C251.449 21.3491 251.308 22.1915 251.003 22.9801C250.698 23.7687 250.236 24.487 249.645 25.0913C249.054 25.6955 248.346 26.1732 247.565 26.4951C246.784 26.817 245.945 26.9765 245.1 26.9638ZM245.1 15.3204C244.43 15.3178 243.767 15.452 243.151 15.7149C242.535 15.9778 241.979 16.3638 241.517 16.8492C241.056 17.3347 240.698 17.9093 240.466 18.5379C240.234 19.1666 240.133 19.836 240.169 20.5051C240.138 21.1701 240.243 21.8344 240.477 22.4577C240.71 23.081 241.068 23.6505 241.527 24.1318C241.987 24.613 242.539 24.9961 243.151 25.2578C243.763 25.5195 244.421 25.6544 245.087 25.6544C245.752 25.6544 246.41 25.5195 247.022 25.2578C247.634 24.9961 248.186 24.613 248.646 24.1318C249.106 23.6505 249.463 23.081 249.697 22.4577C249.93 21.8344 250.035 21.1701 250.005 20.5051C250.039 19.8385 249.938 19.1718 249.707 18.5455C249.476 17.9192 249.121 17.3463 248.662 16.8615C248.204 16.3766 247.652 15.99 247.039 15.7249C246.427 15.4599 245.767 15.3219 245.1 15.3194V15.3204Z" fill="#0070BC"/>
<path d="M261.116 16.7342C259.92 15.6529 259.316 15.3194 258.623 15.3194C257.403 15.3194 255.991 16.5951 254.632 18.896V26.7142H253.302V14.2666H254.632V17.5365H254.689C256.156 15.2089 257.654 14.017 259.039 14.017C259.899 14.017 260.674 14.4048 261.893 15.4852L261.116 16.7342Z" fill="#0070BC"/>
<path d="M265.108 10.0813H263.778V7.80804H265.108V10.0813ZM265.108 26.7142H263.778V14.2676H265.108V26.7142Z" fill="#0070BC"/>
<path d="M268.408 20.0309C268.318 20.7351 268.379 21.4504 268.587 22.1291C268.795 22.8079 269.145 23.4344 269.614 23.967C270.084 24.4996 270.661 24.9259 271.308 25.2176C271.955 25.5094 272.656 25.6597 273.366 25.6587C275.085 25.6331 276.734 24.9713 277.995 23.8009V25.2976C276.639 26.3937 274.943 26.982 273.2 26.9611C269.598 26.9611 266.995 24.1896 266.995 20.3357C266.995 16.6753 269.403 14.0153 272.702 14.0153C275.361 14.0153 278.215 15.8731 278.215 20.0309H268.408ZM276.634 18.9495C276.164 16.5105 274.833 15.3177 272.702 15.3177C271.691 15.3199 270.715 15.6893 269.955 16.3573C269.195 17.0252 268.704 17.9463 268.572 18.9495H276.634Z" fill="#0070BC"/>
<path d="M287.526 16.5132C286.554 15.7383 285.362 15.2916 284.12 15.2375C282.624 15.2375 281.46 16.1522 281.46 17.345C281.46 20.3385 287.916 19.2019 287.916 23.5254C287.916 25.4671 286.144 26.9638 283.842 26.9638C282.513 26.9482 281.215 26.554 280.102 25.8272V24.5239C281.288 25.226 282.632 25.617 284.01 25.6605C285.532 25.6605 286.642 24.7735 286.642 23.4978C286.642 20.5328 280.186 21.4189 280.186 17.4269C280.186 15.5148 281.96 14.0189 284.204 14.0189C285.388 14.0579 286.538 14.4221 287.529 15.0717L287.526 16.5132Z" fill="#0070BC"/>
<path d="M161.535 34.6502C160.931 34.3284 160.266 34.1399 159.584 34.0975C159.031 34.0975 158.681 34.2965 158.681 34.6032C158.681 35.5344 161.811 35.2719 161.811 37.4226C161.811 38.6071 160.816 39.2924 159.445 39.2924C158.663 39.3054 157.894 39.099 157.223 38.6965V37.3701C157.821 37.8547 158.559 38.1337 159.327 38.1659C159.915 38.1659 160.231 37.9569 160.231 37.5958C160.231 36.5826 157.101 36.951 157.101 34.7404C157.101 33.6747 158.022 32.9683 159.448 32.9683C160.169 32.9767 160.881 33.1404 161.534 33.4481L161.535 34.6502Z" fill="#0070BC"/>
<path d="M166.349 39.0152C165.9 39.1903 165.423 39.2838 164.94 39.2915C164.637 39.3287 164.329 39.3007 164.037 39.2094C163.746 39.1181 163.477 38.9656 163.249 38.7621C163.02 38.5585 162.838 38.3086 162.714 38.029C162.59 37.7494 162.527 37.4466 162.529 37.1407C162.53 36.8394 162.593 36.5415 162.714 36.2656C162.835 35.9897 163.012 35.7418 163.233 35.5374C163.454 35.333 163.715 35.1765 164 35.0777C164.284 34.9789 164.586 34.94 164.886 34.9633C165.365 34.9768 165.838 35.0702 166.286 35.2396V36.2151C165.957 36.0418 165.592 35.9472 165.22 35.9387C165.056 35.9284 164.892 35.9514 164.738 36.0064C164.583 36.0613 164.441 36.147 164.32 36.2583C164.199 36.3696 164.102 36.5043 164.035 36.6541C163.968 36.8039 163.931 36.9658 163.928 37.13C163.925 37.2943 163.955 37.4574 164.017 37.6097C164.079 37.762 164.17 37.9002 164.287 38.016C164.403 38.1318 164.542 38.2228 164.694 38.2836C164.847 38.3443 165.01 38.3735 165.174 38.3695C165.581 38.3483 165.979 38.2501 166.349 38.0803V39.0152Z" fill="#0070BC"/>
<path d="M168.627 33.6931C168.627 33.8361 168.585 33.9759 168.505 34.0948C168.426 34.2138 168.313 34.3064 168.181 34.3612C168.049 34.4159 167.904 34.4302 167.763 34.4023C167.623 34.3744 167.494 34.3055 167.393 34.2044C167.292 34.1033 167.223 33.9745 167.196 33.8342C167.168 33.6939 167.182 33.5486 167.237 33.4164C167.291 33.2843 167.384 33.1714 167.503 33.0919C167.622 33.0125 167.761 32.9701 167.904 32.9701C168.096 32.9711 168.279 33.0476 168.414 33.1829C168.55 33.3183 168.626 33.5017 168.627 33.6931ZM168.562 39.2132H167.252V35.0481H168.563L168.562 39.2132Z" fill="#0070BC"/>
<path d="M173.738 38.7453C173.196 39.1291 172.542 39.3234 171.878 39.2979C171.575 39.3352 171.267 39.3072 170.975 39.2159C170.683 39.1246 170.414 38.9721 170.186 38.7685C169.958 38.565 169.776 38.3151 169.652 38.0355C169.528 37.7559 169.465 37.4531 169.467 37.1472C169.469 36.8537 169.529 36.5635 169.646 36.2941C169.762 36.0247 169.932 35.7815 170.144 35.5793C170.357 35.3771 170.608 35.22 170.883 35.1174C171.158 35.0149 171.45 34.9689 171.743 34.9824C172.036 34.9959 172.324 35.0685 172.588 35.1959C172.852 35.3233 173.088 35.5028 173.281 35.7237C173.474 35.9445 173.621 36.2022 173.712 36.4812C173.803 36.7602 173.837 37.0547 173.811 37.3471H170.82C170.825 37.5174 170.866 37.6849 170.939 37.8387C171.013 37.9924 171.117 38.129 171.247 38.2397C171.377 38.3504 171.528 38.4326 171.691 38.4812C171.854 38.5297 172.026 38.5434 172.195 38.5215C172.763 38.5081 173.308 38.2974 173.738 37.9255V38.7453ZM172.655 36.6572C172.657 36.5374 172.635 36.4183 172.591 36.3071C172.546 36.1959 172.48 36.0948 172.395 36.0097C172.311 35.9246 172.21 35.8573 172.1 35.8117C171.989 35.7662 171.87 35.7433 171.75 35.7444C171.63 35.742 171.511 35.764 171.4 35.8091C171.288 35.8543 171.187 35.9216 171.103 36.0069C171.019 36.0923 170.952 36.194 170.908 36.3058C170.864 36.4175 170.844 36.5371 170.847 36.6572H172.655Z" fill="#0070BC"/>
<path d="M175.97 35.6449C176.127 35.4336 176.331 35.2621 176.567 35.1444C176.802 35.0266 177.062 34.9658 177.325 34.967C177.534 34.9576 177.742 34.9932 177.936 35.0714C178.13 35.1497 178.305 35.2688 178.449 35.4206C178.593 35.5724 178.703 35.7534 178.77 35.9514C178.838 36.1493 178.863 36.3596 178.843 36.5678V39.2141H177.533V36.6756C177.533 36.0889 177.252 35.8466 176.882 35.8466C176.556 35.8466 176.313 36.0189 175.969 36.5329V39.216H174.659V35.0481H175.969L175.97 35.6449Z" fill="#0070BC"/>
<path d="M183.566 39.0152C183.116 39.1905 182.639 39.2841 182.157 39.2915C181.854 39.3288 181.546 39.3008 181.254 39.2095C180.962 39.1182 180.693 38.9657 180.465 38.7621C180.237 38.5586 180.055 38.3087 179.931 38.0291C179.807 37.7495 179.744 37.4467 179.746 37.1408C179.747 36.8394 179.81 36.5414 179.931 36.2655C180.052 35.9895 180.229 35.7415 180.45 35.5371C180.671 35.3327 180.932 35.1762 181.217 35.0775C181.502 34.9788 181.803 34.9399 182.104 34.9634C182.582 34.9768 183.055 35.0702 183.502 35.2397V36.2151C183.173 36.0417 182.809 35.9471 182.437 35.9388C182.273 35.9285 182.109 35.9515 181.954 36.0064C181.8 36.0614 181.658 36.1471 181.537 36.2584C181.416 36.3697 181.319 36.5043 181.252 36.6542C181.184 36.804 181.148 36.9659 181.145 37.1301C181.142 37.2943 181.172 37.4575 181.234 37.6098C181.295 37.762 181.387 37.9002 181.503 38.016C181.62 38.1319 181.759 38.2229 181.911 38.2836C182.064 38.3444 182.227 38.3736 182.391 38.3695C182.797 38.3484 183.195 38.2503 183.565 38.0803L183.566 39.0152Z" fill="#0070BC"/>
<path d="M188.502 38.7454C187.96 39.1293 187.306 39.3235 186.642 39.298C186.339 39.3354 186.031 39.3075 185.739 39.2163C185.447 39.1251 185.178 38.9726 184.95 38.769C184.722 38.5654 184.54 38.3154 184.416 38.0358C184.292 37.7561 184.229 37.4532 184.231 37.1473C184.231 36.8529 184.291 36.5616 184.407 36.2909C184.522 36.0202 184.692 35.7759 184.905 35.5725C185.117 35.3692 185.369 35.2111 185.645 35.1079C185.92 35.0047 186.214 34.9584 186.508 34.972C186.802 34.9855 187.09 35.0585 187.355 35.1866C187.62 35.3147 187.856 35.4952 188.049 35.7172C188.242 35.9392 188.388 36.1982 188.479 36.4783C188.569 36.7585 188.602 37.054 188.575 37.3472H185.585C185.589 37.5174 185.63 37.6848 185.703 37.8385C185.777 37.9922 185.881 38.1288 186.011 38.2394C186.14 38.3501 186.291 38.4324 186.455 38.481C186.618 38.5296 186.789 38.5434 186.958 38.5216C187.526 38.5081 188.072 38.2974 188.501 37.9256L188.502 38.7454ZM187.42 36.6573C187.422 36.5375 187.401 36.4184 187.356 36.3072C187.311 36.196 187.245 36.0949 187.16 36.0098C187.076 35.9247 186.976 35.8574 186.865 35.8118C186.754 35.7663 186.635 35.7434 186.515 35.7445C186.395 35.7419 186.276 35.7639 186.165 35.809C186.054 35.854 185.953 35.9214 185.868 36.0068C185.784 36.0922 185.718 36.1939 185.674 36.3058C185.63 36.4176 185.609 36.5372 185.613 36.6573H187.42Z" fill="#0070BC"/>
<path d="M194.686 35.5528H196.365V33.8718H197.522V35.5528H199.201V36.7088H197.522V38.3897H196.365V36.7088H194.686V35.5528Z" fill="#0070BC"/>
<path d="M211.45 39.2132H209.916V36.7198H206.844V39.2141H205.31V33.0521H206.844V35.5289H209.915V33.0511H211.449L211.45 39.2132Z" fill="#0070BC"/>
<path d="M216.576 38.7453C216.033 39.1294 215.378 39.3236 214.714 39.298C214.41 39.3347 214.103 39.3062 213.811 39.2145C213.52 39.1228 213.251 38.9699 213.023 38.7661C212.795 38.5623 212.614 38.3123 212.49 38.0326C212.366 37.753 212.304 37.4502 212.306 37.1445C212.306 36.85 212.366 36.5585 212.482 36.2877C212.598 36.0169 212.767 35.7724 212.98 35.569C213.193 35.3656 213.445 35.2075 213.72 35.1042C213.996 35.0009 214.29 34.9547 214.584 34.9682C214.878 34.9817 215.166 35.0547 215.431 35.1829C215.696 35.311 215.932 35.4916 216.126 35.7137C216.319 35.9358 216.465 36.1948 216.556 36.4751C216.646 36.7554 216.679 37.0511 216.652 37.3444H213.662C213.667 37.5146 213.707 37.6819 213.781 37.8356C213.854 37.9893 213.959 38.1259 214.088 38.2366C214.217 38.3472 214.369 38.4295 214.532 38.4781C214.695 38.5267 214.866 38.5406 215.035 38.5187C215.604 38.5052 216.15 38.2946 216.581 37.9228L216.576 38.7453ZM215.492 36.6572C215.494 36.5376 215.472 36.4187 215.427 36.3076C215.383 36.1965 215.317 36.0955 215.232 36.0104C215.148 35.9253 215.048 35.858 214.937 35.8123C214.827 35.7666 214.708 35.7436 214.589 35.7444C214.469 35.7419 214.349 35.7638 214.238 35.8089C214.127 35.854 214.026 35.9213 213.941 36.0067C213.857 36.0921 213.79 36.1938 213.746 36.3056C213.702 36.4175 213.682 36.5371 213.685 36.6572H215.492Z" fill="#0070BC"/>
<path d="M221.77 38.9167C221.397 39.1391 220.976 39.2689 220.542 39.2953C220.11 39.2953 219.898 39.1599 219.811 38.8255C219.416 39.1242 218.935 39.2887 218.44 39.2953C218.151 39.312 217.866 39.2144 217.648 39.0236C217.43 38.8327 217.296 38.5637 217.274 38.2747C217.274 37.2809 218.005 37.0773 219.749 36.5394C219.776 36.1516 219.595 35.844 219.026 35.844C218.445 35.871 217.896 36.1198 217.492 36.5394V35.4746C218.034 35.138 218.661 34.962 219.299 34.9671C220.344 34.9671 221.059 35.3199 221.059 36.2336V38.1301C221.059 38.3383 221.14 38.4193 221.275 38.4193C221.367 38.4193 221.466 38.4018 221.771 38.1835L221.77 38.9167ZM219.745 37.1998C218.967 37.4761 218.598 37.6603 218.598 38.0757C218.596 38.1907 218.64 38.3017 218.719 38.3847C218.799 38.4677 218.908 38.5159 219.023 38.5188C219.294 38.5058 219.551 38.393 219.745 38.2019V37.1998Z" fill="#0070BC"/>
<path d="M223.775 39.2132H222.465V33.0511H223.775V39.2132Z" fill="#0070BC"/>
<path d="M227.901 35.9434H226.383V37.6593C226.374 37.7474 226.384 37.8365 226.412 37.9204C226.441 38.0042 226.488 38.0807 226.549 38.1445C226.611 38.2082 226.685 38.2577 226.768 38.2895C226.851 38.3212 226.939 38.3344 227.028 38.3281C227.336 38.3218 227.638 38.2379 227.905 38.084V39.0327C227.524 39.2041 227.111 39.2932 226.693 39.2943C226.479 39.3224 226.261 39.3016 226.056 39.2336C225.85 39.1657 225.663 39.0522 225.508 38.9016C225.353 38.7511 225.233 38.5674 225.159 38.3642C225.084 38.1611 225.057 37.9437 225.078 37.7284V35.9434H224.481V35.6891L226.224 33.7374H226.387V35.0471H227.905L227.901 35.9434Z" fill="#0070BC"/>
<path d="M229.905 35.6634H229.924C230.072 35.4493 230.269 35.2742 230.498 35.1529C230.728 35.0317 230.984 34.9679 231.243 34.967C231.452 34.9568 231.66 34.9915 231.854 35.0687C232.048 35.146 232.224 35.264 232.368 35.4148C232.513 35.5656 232.623 35.7456 232.692 35.9428C232.761 36.14 232.787 36.3497 232.768 36.5577V39.2142H231.459V36.8414C231.459 36.2179 231.183 35.9305 230.781 35.9305C230.474 35.9305 230.212 36.1193 229.905 36.5614V39.2178H228.596V33.0558H229.905V35.6634Z" fill="#0070BC"/>
<path d="M238.903 35.5528H240.582V33.8718H241.737V35.5528H243.416V36.7088H241.737V38.3897H240.582V36.7088H238.903V35.5528Z" fill="#0070BC"/>
<path d="M253.842 34.6502C253.239 34.3279 252.573 34.1395 251.89 34.0975C251.337 34.0975 250.99 34.2965 250.99 34.6032C250.99 35.5344 254.12 35.2719 254.12 37.4226C254.12 38.6071 253.127 39.2924 251.755 39.2924C250.973 39.3053 250.203 39.0989 249.532 38.6965V37.3701C250.13 37.8547 250.868 38.1337 251.637 38.1659C252.224 38.1659 252.541 37.9569 252.541 37.5958C252.541 36.5826 249.411 36.951 249.411 34.7404C249.411 33.6747 250.331 32.9683 251.759 32.9683C252.481 32.9769 253.192 33.1405 253.845 33.4481L253.842 34.6502Z" fill="#0070BC"/>
<path d="M257.164 39.2952C256.744 39.262 256.342 39.1068 256.008 38.8485C255.674 38.5902 255.422 38.24 255.284 37.8409C255.146 37.4418 255.127 37.011 255.23 36.6014C255.333 36.1918 255.553 35.8212 255.864 35.5349C256.174 35.2486 256.561 35.059 256.977 34.9895C257.394 34.92 257.821 34.9735 258.208 35.1435C258.594 35.3134 258.923 35.5925 259.153 35.9464C259.383 36.3004 259.506 36.7138 259.504 37.1362C259.505 37.4355 259.443 37.7316 259.323 38.0058C259.203 38.28 259.028 38.5263 258.808 38.7292C258.588 38.9321 258.328 39.0871 258.045 39.1845C257.762 39.282 257.462 39.3196 257.164 39.2952ZM257.164 35.7444C256.597 35.7444 256.208 36.1865 256.208 37.126C256.208 38.2009 256.668 38.5178 257.164 38.5178C257.781 38.5178 258.104 38.0121 258.104 37.0993C258.104 36.2869 257.824 35.7444 257.164 35.7444Z" fill="#0070BC"/>
<path d="M261.721 39.2132H260.411V33.0511H261.721V39.2132Z" fill="#0070BC"/>
<path d="M265.52 38.6183C265.364 38.8287 265.162 38.9996 264.928 39.1172C264.695 39.2348 264.437 39.2958 264.176 39.2953C263.967 39.3073 263.759 39.2742 263.565 39.1983C263.371 39.1223 263.195 39.0053 263.05 38.8553C262.905 38.7052 262.794 38.5256 262.725 38.3288C262.656 38.1319 262.63 37.9225 262.649 37.7147V35.0482H263.956V37.6272C263.956 38.2139 264.275 38.4221 264.617 38.4221C264.821 38.4098 265.017 38.3346 265.177 38.2066C265.337 38.0786 265.453 37.9042 265.51 37.7073V35.0482H266.829V39.2133H265.52V38.6183Z" fill="#0070BC"/>
<path d="M271.084 35.9434H269.567V37.6593C269.558 37.7474 269.568 37.8363 269.597 37.92C269.626 38.0037 269.673 38.0801 269.734 38.1438C269.795 38.2075 269.87 38.257 269.953 38.2888C270.035 38.3206 270.124 38.334 270.212 38.3281C270.519 38.3218 270.819 38.2378 271.085 38.084V39.0327C270.705 39.2042 270.293 39.2934 269.876 39.2943C269.661 39.3223 269.443 39.3016 269.238 39.2336C269.033 39.1656 268.845 39.0521 268.69 38.9016C268.535 38.7511 268.415 38.5674 268.341 38.3643C268.266 38.1612 268.238 37.9438 268.259 37.7284V35.9434H267.664V35.6891L269.406 33.7374H269.568V35.0471H271.084V35.9434Z" fill="#0070BC"/>
<path d="M273.288 33.6931C273.288 33.836 273.246 33.9756 273.166 34.0943C273.087 34.213 272.974 34.3054 272.842 34.3598C272.71 34.4143 272.565 34.4283 272.425 34.4002C272.285 34.3721 272.156 34.3031 272.055 34.2019C271.955 34.1007 271.886 33.9718 271.859 33.8316C271.831 33.6915 271.846 33.5463 271.901 33.4144C271.956 33.2825 272.048 33.1699 272.167 33.0908C272.286 33.0118 272.426 32.9697 272.569 32.9701C272.76 32.9713 272.942 33.048 273.077 33.1834C273.212 33.3188 273.288 33.502 273.288 33.6931ZM273.229 39.2132H271.919V35.0481H273.229V39.2132Z" fill="#0070BC"/>
<path d="M276.368 39.2952C275.947 39.262 275.545 39.1068 275.211 38.8485C274.877 38.5902 274.626 38.24 274.488 37.8409C274.35 37.4418 274.331 37.011 274.434 36.6014C274.537 36.1918 274.757 35.8212 275.067 35.5349C275.378 35.2486 275.765 35.059 276.181 34.9895C276.597 34.92 277.025 34.9735 277.411 35.1435C277.798 35.3134 278.126 35.5925 278.357 35.9464C278.587 36.3004 278.709 36.7138 278.708 37.1362C278.708 37.4355 278.646 37.7316 278.527 38.0058C278.407 38.28 278.231 38.5263 278.011 38.7292C277.791 38.9321 277.532 39.0871 277.249 39.1845C276.966 39.282 276.666 39.3196 276.368 39.2952ZM276.368 35.7444C275.8 35.7444 275.411 36.1865 275.411 37.126C275.411 38.2009 275.872 38.5178 276.368 38.5178C276.983 38.5178 277.308 38.0121 277.308 37.0993C277.308 36.2869 277.028 35.7444 276.368 35.7444Z" fill="#0070BC"/>
<path d="M280.888 35.645C281.045 35.4338 281.248 35.2623 281.483 35.1446C281.718 35.0268 281.978 34.966 282.24 34.9671C282.449 34.9578 282.658 34.9935 282.852 35.0718C283.046 35.1501 283.22 35.2692 283.364 35.421C283.508 35.5728 283.618 35.7538 283.686 35.9517C283.753 36.1496 283.778 36.3597 283.758 36.5679V39.2142H282.449V36.6757C282.449 36.089 282.172 35.8467 281.799 35.8467C281.475 35.8467 281.23 36.019 280.888 36.5329V39.216H279.576V35.0481H280.888V35.645Z" fill="#0070BC"/>
<path d="M287.706 36.2058C287.289 35.9367 286.811 35.7782 286.316 35.7453C286.143 35.7453 285.845 35.7821 285.845 36.0704C285.845 36.531 287.914 36.5494 287.914 37.9412C287.914 38.8079 287.301 39.2952 286.214 39.2952C285.702 39.2946 285.196 39.1903 284.726 38.9884V38.0674C285.145 38.2769 285.604 38.3967 286.073 38.4192C286.46 38.4192 286.704 38.3022 286.704 38.1125C286.704 37.5073 284.635 37.6151 284.635 36.251C284.635 35.4828 285.331 34.9661 286.359 34.9661C286.826 34.9541 287.29 35.0599 287.706 35.2737V36.2058Z" fill="#0070BC"/>
<path d="M10.5092 15.1058H0.0845337V33.0844H18.0515V20.367H10.5092V15.1058Z" fill="#EDEDED"/>
<path d="M18.0515 7.55283V-6.10352e-05H5.24524V12.8141H10.5091V7.55283H18.0515Z" fill="#0070BC"/>
<path d="M18.0508 7.55383H10.5094V20.367H23.3156V7.55383H18.0508Z" fill="#C2CF17"/>
</svg>
